<svg id="visual" viewBox="0 0 900 600" width="900" height="600" xmlns="http://www.w3.org/2000/svg" xmlns:xlink="http://www.w3.org/1999/xlink" version="1.1"><rect x="0" y="0" width="900" height="600" fill="#FFFFFF"></rect><path d="M0 487L7.8 488.8C15.7 490.7 31.3 494.3 47.2 496.5C63 498.7 79 499.3 94.8 504.2C110.7 509 126.3 518 142 522.5C157.7 527 173.3 527 189.2 525.5C205 524 221 521 236.8 520C252.7 519 268.3 520 284.2 514.7C300 509.3 316 497.7 331.8 499C347.7 500.3 363.3 514.7 379 520.5C394.7 526.3 410.3 523.7 426.2 524C442 524.3 458 527.7 473.8 527.3C489.7 527 505.3 523 521 520.7C536.7 518.3 552.3 517.7 568.2 513.2C584 508.7 600 500.3 615.8 502.8C631.7 505.3 647.3 518.7 663.2 518.3C679 518 695 504 710.8 499.7C726.7 495.3 742.3 500.7 758 502.5C773.7 504.3 789.3 502.7 805.2 499.8C821 497 837 493 852.8 493.7C868.7 494.3 884.3 499.7 892.2 502.3L900 505L900 601L892.2 601C884.3 601 868.7 601 852.8 601C837 601 821 601 805.2 601C789.3 601 773.7 601 758 601C742.3 601 726.7 601 710.8 601C695 601 679 601 663.2 601C647.3 601 631.7 601 615.8 601C600 601 584 601 568.2 601C552.3 601 536.7 601 521 601C505.3 601 489.7 601 473.8 601C458 601 442 601 426.2 601C410.3 601 394.7 601 379 601C363.3 601 347.7 601 331.8 601C316 601 300 601 284.2 601C268.3 601 252.7 601 236.8 601C221 601 205 601 189.2 601C173.3 601 157.7 601 142 601C126.3 601 110.7 601 94.8 601C79 601 63 601 47.2 601C31.3 601 15.7 601 7.8 601L0 601Z" fill="#059669" stroke-linecap="round" stroke-linejoin="miter"></path></svg>