<svg id="visual" viewBox="0 0 900 600" width="900" height="600" xmlns="http://www.w3.org/2000/svg" xmlns:xlink="http://www.w3.org/1999/xlink" version="1.1"><path d="M0 223L18.8 215C37.7 207 75.3 191 112.8 187C150.3 183 187.7 191 225.2 195C262.7 199 300.3 199 337.8 194C375.3 189 412.7 179 450.2 174C487.7 169 525.3 169 562.8 167C600.3 165 637.7 161 675.2 169C712.7 177 750.3 197 787.8 198C825.3 199 862.7 181 881.3 172L900 163L900 0L881.3 0C862.7 0 825.3 0 787.8 0C750.3 0 712.7 0 675.2 0C637.7 0 600.3 0 562.8 0C525.3 0 487.7 0 450.2 0C412.7 0 375.3 0 337.8 0C300.3 0 262.7 0 225.2 0C187.7 0 150.3 0 112.8 0C75.3 0 37.7 0 18.8 0L0 0Z" fill="#0bb39d"></path><path d="M0 349L18.8 340C37.7 331 75.3 313 112.8 308C150.3 303 187.7 311 225.2 316C262.7 321 300.3 323 337.8 315C375.3 307 412.7 289 450.2 286C487.7 283 525.3 295 562.8 297C600.3 299 637.7 291 675.2 293C712.7 295 750.3 307 787.8 304C825.3 301 862.7 283 881.3 274L900 265L900 161L881.3 170C862.7 179 825.3 197 787.8 196C750.3 195 712.7 175 675.2 167C637.7 159 600.3 163 562.8 165C525.3 167 487.7 167 450.2 172C412.7 177 375.3 187 337.8 192C300.3 197 262.7 197 225.2 193C187.7 189 150.3 181 112.8 185C75.3 189 37.7 205 18.8 213L0 221Z" fill="#11ddc2"></path><path d="M0 523L18.8 523C37.7 523 75.3 523 112.8 521C150.3 519 187.7 515 225.2 510C262.7 505 300.3 499 337.8 495C375.3 491 412.7 489 450.2 488C487.7 487 525.3 487 562.8 487C600.3 487 637.7 487 675.2 493C712.7 499 750.3 511 787.8 511C825.3 511 862.7 499 881.3 493L900 487L900 263L881.3 272C862.7 281 825.3 299 787.8 302C750.3 305 712.7 293 675.2 291C637.7 289 600.3 297 562.8 295C525.3 293 487.7 281 450.2 284C412.7 287 375.3 305 337.8 313C300.3 321 262.7 319 225.2 314C187.7 309 150.3 301 112.8 306C75.3 311 37.7 329 18.8 338L0 347Z" fill="#4bf5db"></path><path d="M0 601L18.8 601C37.7 601 75.3 601 112.8 601C150.3 601 187.7 601 225.2 601C262.7 601 300.3 601 337.8 601C375.3 601 412.7 601 450.2 601C487.7 601 525.3 601 562.8 601C600.3 601 637.7 601 675.2 601C712.7 601 750.3 601 787.8 601C825.3 601 862.7 601 881.3 601L900 601L900 485L881.3 491C862.7 497 825.3 509 787.8 509C750.3 509 712.7 497 675.2 491C637.7 485 600.3 485 562.8 485C525.3 485 487.7 485 450.2 486C412.7 487 375.3 489 337.8 493C300.3 497 262.7 503 225.2 508C187.7 513 150.3 517 112.8 519C75.3 521 37.7 521 18.8 521L0 521Z" fill="#80f8e6"></path></svg>