<svg id="visual" viewBox="0 0 900 600" width="900" height="600" xmlns="http://www.w3.org/2000/svg" xmlns:xlink="http://www.w3.org/1999/xlink" version="1.1"><rect x="0" y="0" width="900" height="600" fill="#FFFFFF"></rect><path d="M0 491L9.3 487C18.7 483 37.3 475 56.2 475.5C75 476 94 485 112.8 485.3C131.7 485.7 150.3 477.3 169 473C187.7 468.7 206.3 468.3 225 473.3C243.7 478.3 262.3 488.7 281.2 488.7C300 488.7 319 478.3 337.8 473.2C356.7 468 375.3 468 394 469.5C412.7 471 431.3 474 450 476.7C468.7 479.3 487.3 481.7 506.2 482.8C525 484 544 484 562.8 485.3C581.7 486.7 600.3 489.3 619 485.5C637.7 481.7 656.3 471.3 675 470.2C693.7 469 712.3 477 731.2 477.5C750 478 769 471 787.8 473.2C806.7 475.3 825.3 486.7 844 490C862.7 493.3 881.3 488.7 890.7 486.3L900 484L900 601L890.7 601C881.3 601 862.7 601 844 601C825.3 601 806.7 601 787.8 601C769 601 750 601 731.2 601C712.3 601 693.7 601 675 601C656.3 601 637.7 601 619 601C600.3 601 581.7 601 562.8 601C544 601 525 601 506.2 601C487.3 601 468.7 601 450 601C431.3 601 412.7 601 394 601C375.3 601 356.7 601 337.8 601C319 601 300 601 281.2 601C262.3 601 243.7 601 225 601C206.3 601 187.7 601 169 601C150.3 601 131.7 601 112.8 601C94 601 75 601 56.2 601C37.3 601 18.7 601 9.3 601L0 601Z" fill="#059669" stroke-linecap="round" stroke-linejoin="miter"></path></svg>